<svg width="300" height="302" viewBox="0 0 300 302" fill="none" xmlns="http://www.w3.org/2000/svg">
<path d="M63.9635 29.1272C89.9117 10.9581 120.946 1.47001 152.618 2.02285C184.29 2.57568 214.974 13.141 240.272 32.2047L238.467 34.6006C213.674 15.9182 183.604 5.56417 152.565 5.02239C121.527 4.48061 91.1134 13.7789 65.6842 31.5847L63.9635 29.1272Z" fill="url(#paint0_linear_114_268)"/>
<circle cx="5" cy="5" r="5" transform="matrix(-1 0 0 1 155 104)" fill="#9D7BB7"/>
<circle cx="4.87879" cy="4.87879" r="4.87879" transform="matrix(-1 0 0 1 154.879 104.121)" fill="url(#paint1_linear_114_268)"/>
<path d="M154.001 1.04213L149.091 104.434L151.687 104.524L154.001 1.04213Z" fill="url(#paint2_linear_114_268)"/>
<defs>
<linearGradient id="paint0_linear_114_268" x1="4.09078" y1="186.792" x2="295.909" y2="117.208" gradientUnits="userSpaceOnUse">
<stop stop-color="#30233A"/>
<stop offset="1" stop-color="#D499F8"/>
</linearGradient>
<linearGradient id="paint1_linear_114_268" x1="4.87879" y1="0" x2="4.87879" y2="9.75758" gradientUnits="userSpaceOnUse">
<stop stop-color="#64578C"/>
<stop offset="1" stop-color="#FC84CC"/>
</linearGradient>
<linearGradient id="paint2_linear_114_268" x1="154.001" y1="1.04213" x2="149.185" y2="138.958" gradientUnits="userSpaceOnUse">
<stop stop-color="#674A7A"/>
<stop offset="1" stop-color="#BF8AE0"/>
</linearGradient>
</defs>
</svg>
