<svg width="300" height="301" viewBox="0 0 300 301" fill="none" xmlns="http://www.w3.org/2000/svg">
<path d="M63.9635 28.1272C89.9117 9.95809 120.946 0.470011 152.618 1.02285C184.29 1.57568 214.974 12.141 240.272 31.2047L238.467 33.6006C213.674 14.9182 183.604 4.56417 152.565 4.02239C121.527 3.48061 91.1134 12.7789 65.6842 30.5847L63.9635 28.1272Z" fill="url(#paint0_linear_114_244)"/>
<circle cx="5" cy="5" r="5" transform="matrix(-1 0 0 1 155 103)" fill="#9D7BB7"/>
<circle cx="4.87879" cy="4.87879" r="4.87879" transform="matrix(-1 0 0 1 154.879 103.121)" fill="url(#paint1_linear_114_244)"/>
<path d="M161.208 0.377997L149.098 103.175L151.681 103.447L161.208 0.377997Z" fill="url(#paint2_linear_114_244)"/>
<defs>
<linearGradient id="paint0_linear_114_244" x1="4.09078" y1="185.792" x2="295.909" y2="116.208" gradientUnits="userSpaceOnUse">
<stop stop-color="#30233A"/>
<stop offset="1" stop-color="#D499F8"/>
</linearGradient>
<linearGradient id="paint1_linear_114_244" x1="4.87879" y1="0" x2="4.87879" y2="9.75758" gradientUnits="userSpaceOnUse">
<stop stop-color="#64578C"/>
<stop offset="1" stop-color="#FC84CC"/>
</linearGradient>
<linearGradient id="paint2_linear_114_244" x1="161.208" y1="0.377997" x2="146.783" y2="137.622" gradientUnits="userSpaceOnUse">
<stop stop-color="#674A7A"/>
<stop offset="1" stop-color="#BF8AE0"/>
</linearGradient>
</defs>
</svg>
