<svg width="300" height="300" viewBox="0 0 300 300" fill="none" xmlns="http://www.w3.org/2000/svg">
<path d="M63.9635 27.1272C89.9117 8.95809 120.946 -0.529989 152.618 0.0228454C184.29 0.57568 214.974 11.141 240.272 30.2047L238.467 32.6006C213.674 13.9182 183.604 3.56417 152.565 3.02239C121.527 2.48061 91.1134 11.7789 65.6842 29.5847L63.9635 27.1272Z" fill="url(#paint0_linear_114_76)"/>
<circle cx="5" cy="5" r="5" transform="matrix(-1 0 0 1 155 102)" fill="#9D7BB7"/>
<circle cx="4.87879" cy="4.87879" r="4.87879" transform="matrix(-1 0 0 1 154.879 102.121)" fill="url(#paint1_linear_114_76)"/>
<path d="M208.756 17.1612L149.803 102.24L151.957 103.693L208.756 17.1612Z" fill="url(#paint2_linear_114_76)"/>
<defs>
<linearGradient id="paint0_linear_114_76" x1="4.09078" y1="184.792" x2="295.909" y2="115.208" gradientUnits="userSpaceOnUse">
<stop stop-color="#30233A"/>
<stop offset="1" stop-color="#D499F8"/>
</linearGradient>
<linearGradient id="paint1_linear_114_76" x1="4.87879" y1="0" x2="4.87879" y2="9.75758" gradientUnits="userSpaceOnUse">
<stop stop-color="#64578C"/>
<stop offset="1" stop-color="#FC84CC"/>
</linearGradient>
<linearGradient id="paint2_linear_114_76" x1="208.756" y1="17.1612" x2="131.588" y2="131.568" gradientUnits="userSpaceOnUse">
<stop stop-color="#674A7A"/>
<stop offset="1" stop-color="#BF8AE0"/>
</linearGradient>
</defs>
</svg>
